<svg width="14" height="21" viewBox="0 0 14 21" fill="none" xmlns="http://www.w3.org/2000/svg">
<path d="M7 0C8.85651 0 10.637 0.737498 11.9497 2.05025C13.2625 3.36301 14 5.14348 14 7C14 8.4 13.59 9.71 12.88 10.8L7 20.21L1.12 10.8C0.385809 9.66886 -0.00334513 8.34852 -1.52184e-06 7C-1.52184e-06 5.14348 0.737496 3.36301 2.05025 2.05025C3.36301 0.737498 5.14348 0 7 0V0ZM7 1.5C5.71449 1.49961 4.46946 1.94952 3.48116 2.77158C2.49286 3.59364 1.82373 4.73592 1.59 6H4.17C4.58 4.83 5.69 4 7 4C8.31 4 9.42 4.83 9.83 6H12.41C12.1763 4.73592 11.5071 3.59364 10.5188 2.77158C9.53054 1.94952 8.2855 1.49961 7 1.5ZM7 10C6.379 10.0018 5.77285 9.81019 5.26571 9.45179C4.75857 9.09339 4.37561 8.58597 4.17 8H1.59C1.72 8.69 1.97 9.34 2.34 9.91L2.38 10C2.88111 10.7683 3.56612 11.3994 4.3729 11.836C5.17967 12.2726 6.08268 12.5008 7 12.5C8.94 12.5 10.64 11.5 11.62 10L11.66 9.91C12.03 9.34 12.28 8.69 12.41 8H9.83C9.62439 8.58597 9.24142 9.09339 8.73428 9.45179C8.22715 9.81019 7.621 10.0018 7 10ZM7 5.5C6.60217 5.5 6.22064 5.65804 5.93934 5.93934C5.65803 6.22064 5.5 6.60218 5.5 7C5.5 7.39782 5.65803 7.77936 5.93934 8.06066C6.22064 8.34196 6.60217 8.5 7 8.5C7.39782 8.5 7.77935 8.34196 8.06066 8.06066C8.34196 7.77936 8.5 7.39782 8.5 7C8.5 6.60218 8.34196 6.22064 8.06066 5.93934C7.77935 5.65804 7.39782 5.5 7 5.5Z" fill="black"/>
</svg>
